<svg xmlns="http://www.w3.org/2000/svg" width="48" height="48" viewBox="0 0 48 48" id="cs-go"><path d="M12.81 25.71H8v3.23h4.77s-.09 1.28-1.15 1.28H8s-1.59 0-1.59-1.54V26.07a1.74 1.74 0 0 1 .83-1.51 1.49 1.49 0 0 1 .74-.21h3.73S12.81 24.74 12.81 25.71zM15.33 25.65h5s-.11-1.3-1-1.3h-4s-1.43.19-1.43 1.3v.77a1.5 1.5 0 0 0 .29.92 1.33 1.33 0 0 0 1.11.58H19V29H13.9a1.46 1.46 0 0 0 1.38 1.19h4a1.42 1.42 0 0 0 1.25-1.52v-.64a.85.85 0 0 0-.06-.31 1.61 1.61 0 0 0-1.58-1.06c-1.37 0-3.6-.05-3.6-.05zM37.08 25.43h-5.3v3.62h4.08V27.76l-2.12 0s-1.05-.22-1.05-.93l4.39 0v2.45a1.28 1.28 0 0 1-1.26 1h-4a1.32 1.32 0 0 1-1.32-1.31V25.66a1.32 1.32 0 0 1 1.32-1.31H36a1.08 1.08 0 0 1 1.08 1.08zM41.77 30.18h-.63a2.92 2.92 0 0 1-2.92-2.92h0a2.91 2.91 0 0 1 2.92-2.91h.63a2.91 2.91 0 0 1 2.91 2.91h0A2.91 2.91 0 0 1 41.77 30.18zm1.64-4.77H39.5v3.68h3.91z"></path><path d="M27.4,18.38v.5h.32l.46-.25v-.38h.12v.32h.27v.2H32v.1h.13v-.63h.13v.63h.23v.24h1V19h.1v.13h.49v.2h-.65v-.08H32.5v.09H32v.17H30.53L30,20l.16.78-.3.18s-.2,1.29-1.16,1.18l-1.33-.64-.1.43.36.29v1.53l-.36.46L27,24.14v.6a4.91,4.91,0,0,1,1.31,2.38.85.85,0,0,1,.26.49,3.35,3.35,0,0,1,.1.9,5.79,5.79,0,0,0-.17,1.1,1.77,1.77,0,0,1-.05,1l0,.82a3.44,3.44,0,0,0,.5.66c.16.08.69.23.71.37v.36H28.34a2.17,2.17,0,0,0-.4-.16c-.17,0-.47.18-.71,0a.45.45,0,0,1-.08-.42l.25-.6v-.93a1.73,1.73,0,0,1-.35-1.21c.07-.73.18-.93.17-1.13S27.15,28,27,28h-.33l-.92-1.32h-.36l-.17-.41h-.15v.31a2,2,0,0,0-.62,1.07c0,.56-.15.63-.29.73a1.57,1.57,0,0,0-.54,1,1.75,1.75,0,0,1-.27,1c-.15.2-.12.59-.29.7a.9.9,0,0,0-.47.78,2.53,2.53,0,0,0,.08,1.05.49.49,0,0,1,0,.25,3.43,3.43,0,0,1-.64.08c-.29,0-.62,0-.64-.21a10.32,10.32,0,0,1,.41-1.84,1.21,1.21,0,0,1-.12-.46,1.74,1.74,0,0,1,.35-.78,1.34,1.34,0,0,1,0-.43c0-.13.69-1.21.83-1.48a2.17,2.17,0,0,1,0-1.11c.16-.46.21-.65.16-.77s-.23-.38-.2-.5.13-.05.13-.05l0-.24-.14,0a.43.43,0,0,1,.35-.43A7.91,7.91,0,0,0,23,24c-.05-.27-.07-.76.25-.81,0,0-.05-.22-.21-.22a.73.73,0,0,0-.25,0l.14-1.7.71,0a3,3,0,0,1,.11-1.86c.42-.73,1-1.17,1.53-.77h.12l-.05-.22a1.32,1.32,0,0,1,.7-1.66,1.51,1.51,0,0,1,1.45.37.88.88,0,0,1,.15,1.09A.5.5,0,0,1,27.4,18.38Z"></path></svg>